<svg id="crown" xmlns="http://www.w3.org/2000/svg" width="65.18" height="37.994" viewBox="0 0 65.18 37.994">
    <ellipse id="Ellipse_134" data-name="Ellipse 134" cx="3.057" cy="4.151" rx="3.057" ry="4.151" transform="translate(0 21.942)" fill="#c28d15" />
    <ellipse id="Ellipse_135" data-name="Ellipse 135" cx="3.057" cy="4.151" rx="3.057" ry="4.151" transform="translate(59.066 21.942)" fill="#c28d15" />
    <path id="Path_877" data-name="Path 877" d="M73.289,121.891l-4.427,19.335H15.333l-4.427-19.335a.417.417,0,0,1,.67-.421,13.323,13.323,0,0,0,4.136,2.449c2.113.7,2.134,3.291,1.2,4.553a2.183,2.183,0,0,0,.4,3.053,4.409,4.409,0,0,0,2.722.845c3.028,0,3.393-6.3,3.435-8.171a.376.376,0,0,0-.463-.377c-.747.178-2.2.344-2.95-.777-.967-1.45,4.03-8.807,5.577-12.026a.412.412,0,0,1,.7-.078c1.007,1.277,3.434,4.692,3.434,7.968,0,4.136,1.32,10.222,3.423,10.629s5.82-2.515,5.82-7.106v-1.875a.506.506,0,0,0-.768-.439,3.331,3.331,0,0,1-1.775.431c-2.107,0-3.152-1.1-3.152-3.362,0-2.211,6.253-7.771,8.695-10.318l.091-.094.089.094c2.441,2.547,8.694,8.107,8.694,10.318,0,2.265-1.045,3.362-3.152,3.362a3.33,3.33,0,0,1-1.775-.431.506.506,0,0,0-.768.439v1.875c0,4.591,3.717,7.511,5.82,7.106s3.424-6.493,3.424-10.629c0-3.276,2.426-6.691,3.433-7.968a.412.412,0,0,1,.7.078c1.547,3.218,6.545,10.576,5.578,12.025-.748,1.121-2.2.954-2.95.777a.376.376,0,0,0-.463.377c.041,1.867.406,8.171,3.434,8.171a4.409,4.409,0,0,0,2.722-.845,2.183,2.183,0,0,0,.4-3.053c-.929-1.261-.907-3.849,1.2-4.553a13.324,13.324,0,0,0,4.136-2.449A.417.417,0,0,1,73.289,121.891Z" transform="translate(-9.507 -106.777)" fill="#ffd740" />
    <path id="Path_878" data-name="Path 878" d="M437.328,223.972c-2.112.7-2.134,3.292-1.2,4.553a2.253,2.253,0,0,1,.391,1.833h0l-2.97,10.92h4.162l4.427-19.335a.417.417,0,0,0-.67-.421A13.323,13.323,0,0,1,437.328,223.972Z" transform="translate(-378.352 -206.828)" opacity="0.1" style="mix-blend-mode: color-burn;isolation: isolate" />
    <path id="Path_879" data-name="Path 879" d="M368.784,150.522c-.748,1.12-2.2.955-2.949.777a.377.377,0,0,0-.464.378c.042,1.868.406,8.17,3.434,8.17a4.453,4.453,0,0,0,2.578-.743c-1.583-1.722-1.817-5.953-1.85-7.427A.378.378,0,0,1,370,151.3c.747.178,2.2.343,2.949-.777.967-1.45-4.03-8.806-5.577-12.024a.412.412,0,0,0-.7-.077,20.964,20.964,0,0,0-1.921,2.908C366.776,144.852,369.523,149.413,368.784,150.522Z" transform="translate(-318.315 -134.253)" opacity="0.1" style="mix-blend-mode: color-burn;isolation: isolate" />
    <ellipse id="Ellipse_136" data-name="Ellipse 136" cx="3.12" cy="4.151" rx="3.12" ry="4.151" transform="translate(29.47 21.37)" fill="#c28d15" />
    <ellipse id="Ellipse_137" data-name="Ellipse 137" cx="2.08" cy="2.837" rx="2.08" ry="2.837" transform="translate(30.51 5.06)" fill="#c28d15" />
    <path id="Path_880" data-name="Path 880" d="M88.432,376.767H33.789a1.108,1.108,0,0,1-1.108-1.108v-1.935a1.108,1.108,0,0,1,1.108-1.108H88.432a1.108,1.108,0,0,1,1.108,1.108v1.935A1.108,1.108,0,0,1,88.432,376.767Z" transform="translate(-28.521 -338.773)" fill="#ffc400" />
    <path id="Path_881" data-name="Path 881" d="M442.084,372.615h-4.161a1.108,1.108,0,0,1,1.109,1.107v1.937a1.108,1.108,0,0,1-1.109,1.107h4.161a1.108,1.108,0,0,0,1.109-1.107v-1.937A1.108,1.108,0,0,0,442.084,372.615Z" transform="translate(-382.173 -338.773)" opacity="0.1" style="mix-blend-mode: color-burn;isolation: isolate" />
</svg>