<svg xmlns="http://www.w3.org/2000/svg" width="15.608" height="15.608" viewBox="0 0 15.608 15.608">
    <g id="Icon_ionic-ios-image" data-name="Icon ionic-ios-image" transform="translate(-3.375 -3.375)">
        <path id="Path_16504" data-name="Path 16504" d="M7.733,16.561h7.155a.209.209,0,0,0,.169-.33l-3.579-5.755a.207.207,0,0,0-.341,0L7.56,16.231A.21.21,0,0,0,7.733,16.561Z" transform="translate(-1.934 -3.27)" fill="#5d5b5d" />
        <path id="Path_16505" data-name="Path 16505" d="M21.532,16.542l1.313,2.09a.2.2,0,0,0,.169.09h2a.209.209,0,0,0,.169-.33L22.868,15.1a.207.207,0,0,0-.341,0l-1,1.2A.216.216,0,0,0,21.532,16.542Z" transform="translate(-8.451 -5.427)" fill="#5d5b5d" />
        <path id="Path_16506" data-name="Path 16506" d="M23.676,9.974a1.05,1.05,0,1,0-1.152-1.152A1.054,1.054,0,0,0,23.676,9.974Z" transform="translate(-8.929 -2.1)" fill="#5d5b5d" />
        <path id="Path_16507" data-name="Path 16507" d="M17.782,3.375H4.576a1.2,1.2,0,0,0-1.2,1.2V17.782a1.2,1.2,0,0,0,1.2,1.2H17.782a1.2,1.2,0,0,0,1.2-1.2V4.576A1.2,1.2,0,0,0,17.782,3.375Zm-.1,10.505a.3.3,0,0,1-.3.3H4.977a.3.3,0,0,1-.3-.3v-8.9a.3.3,0,0,1,.3-.3H17.385a.3.3,0,0,1,.3.3v8.9Z" fill="#5d5b5d" />
    </g>
</svg>